<svg height="300" viewBox="0 0 400 300" width="400" xmlns="http://www.w3.org/2000/svg">
<defs>
<clipPath id="plotive1">
<rect height="260" width="292.328" x="20" y="20"/>
</clipPath>
<linearGradient gradientUnits="userSpaceOnUse" id="plotive2" x1="334.328" x2="334.328" y1="280" y2="20">
<stop offset="0%" stop-color="#440154"/>
<stop offset="0.3846154%" stop-color="#440355"/>
<stop offset="0.7692308%" stop-color="#440556"/>
<stop offset="1.1538461%" stop-color="#440756"/>
<stop offset="1.5384616%" stop-color="#450957"/>
<stop offset="1.923077%" stop-color="#450b58"/>
<stop offset="2.3076923%" stop-color="#450d59"/>
<stop offset="2.6923077%" stop-color="#450f5a"/>
<stop offset="3.0769231%" stop-color="#45105a"/>
<stop offset="3.4615386%" stop-color="#45125b"/>
<stop offset="3.846154%" stop-color="#45145c"/>
<stop offset="4.230769%" stop-color="#45155d"/>
<stop offset="4.6153846%" stop-color="#45165e"/>
<stop offset="5%" stop-color="#46185e"/>
<stop offset="5.3846154%" stop-color="#46195f"/>
<stop offset="5.769231%" stop-color="#461b60"/>
<stop offset="6.1538463%" stop-color="#461c61"/>
<stop offset="6.5384617%" stop-color="#461d62"/>
<stop offset="6.923077%" stop-color="#461e63"/>
<stop offset="7.3076925%" stop-color="#462063"/>
<stop offset="7.692308%" stop-color="#462164"/>
<stop offset="8.076923%" stop-color="#462265"/>
<stop offset="8.461538%" stop-color="#462366"/>
<stop offset="8.846154%" stop-color="#462467"/>
<stop offset="9.230769%" stop-color="#462667"/>
<stop offset="9.615385%" stop-color="#462768"/>
<stop offset="10%" stop-color="#462869"/>
<stop offset="10.384616%" stop-color="#46296a"/>
<stop offset="10.769231%" stop-color="#462a6b"/>
<stop offset="11.153846%" stop-color="#462b6c"/>
<stop offset="11.538462%" stop-color="#452c6c"/>
<stop offset="11.923077%" stop-color="#452e6d"/>
<stop offset="12.307693%" stop-color="#452f6e"/>
<stop offset="12.692308%" stop-color="#45306f"/>
<stop offset="13.076923%" stop-color="#453170"/>
<stop offset="13.461539%" stop-color="#453271"/>
<stop offset="13.846154%" stop-color="#453371"/>
<stop offset="14.23077%" stop-color="#453472"/>
<stop offset="14.615385%" stop-color="#453573"/>
<stop offset="15.000001%" stop-color="#443674"/>
<stop offset="15.384616%" stop-color="#443775"/>
<stop offset="15.769232%" stop-color="#443876"/>
<stop offset="16.153847%" stop-color="#443976"/>
<stop offset="16.538462%" stop-color="#443a77"/>
<stop offset="16.923077%" stop-color="#433b78"/>
<stop offset="17.307693%" stop-color="#433c79"/>
<stop offset="17.692308%" stop-color="#433e7a"/>
<stop offset="18.076923%" stop-color="#433f7b"/>
<stop offset="18.461538%" stop-color="#42407c"/>
<stop offset="18.846153%" stop-color="#42417c"/>
<stop offset="19.23077%" stop-color="#42427d"/>
<stop offset="19.615385%" stop-color="#41437e"/>
<stop offset="20%" stop-color="#41447f"/>
<stop offset="20.384615%" stop-color="#414580"/>
<stop offset="20.769232%" stop-color="#404681"/>
<stop offset="21.153847%" stop-color="#404781"/>
<stop offset="21.538462%" stop-color="#3f4882"/>
<stop offset="21.923077%" stop-color="#3f4983"/>
<stop offset="22.307692%" stop-color="#3f4a84"/>
<stop offset="22.692308%" stop-color="#3e4b85"/>
<stop offset="23.076923%" stop-color="#3e4c86"/>
<stop offset="23.461538%" stop-color="#3d4d87"/>
<stop offset="23.846153%" stop-color="#3d4e87"/>
<stop offset="24.23077%" stop-color="#3c4f88"/>
<stop offset="24.615385%" stop-color="#3c5089"/>
<stop offset="25%" stop-color="#3b518a"/>
<stop offset="25.384617%" stop-color="#3b528a"/>
<stop offset="25.76923%" stop-color="#3b538a"/>
<stop offset="26.153847%" stop-color="#3b548a"/>
<stop offset="26.538462%" stop-color="#3a558a"/>
<stop offset="26.923079%" stop-color="#3a568a"/>
<stop offset="27.307692%" stop-color="#3a578b"/>
<stop offset="27.692308%" stop-color="#3a588b"/>
<stop offset="28.076923%" stop-color="#3a598b"/>
<stop offset="28.46154%" stop-color="#3a5a8b"/>
<stop offset="28.846153%" stop-color="#395b8b"/>
<stop offset="29.23077%" stop-color="#395c8b"/>
<stop offset="29.615385%" stop-color="#395d8b"/>
<stop offset="30.000002%" stop-color="#395e8b"/>
<stop offset="30.384615%" stop-color="#395f8b"/>
<stop offset="30.769232%" stop-color="#38608b"/>
<stop offset="31.153847%" stop-color="#38618b"/>
<stop offset="31.538464%" stop-color="#38628b"/>
<stop offset="31.923077%" stop-color="#38638b"/>
<stop offset="32.307693%" stop-color="#37648b"/>
<stop offset="32.692307%" stop-color="#37658b"/>
<stop offset="33.076923%" stop-color="#37658c"/>
<stop offset="33.461536%" stop-color="#37668c"/>
<stop offset="33.846153%" stop-color="#36678c"/>
<stop offset="34.23077%" stop-color="#36688c"/>
<stop offset="34.615387%" stop-color="#36698c"/>
<stop offset="35%" stop-color="#366a8c"/>
<stop offset="35.384617%" stop-color="#356b8c"/>
<stop offset="35.76923%" stop-color="#356c8c"/>
<stop offset="36.153847%" stop-color="#356d8c"/>
<stop offset="36.53846%" stop-color="#346e8c"/>
<stop offset="36.923077%" stop-color="#346f8c"/>
<stop offset="37.307693%" stop-color="#34708c"/>
<stop offset="37.692307%" stop-color="#33718c"/>
<stop offset="38.076923%" stop-color="#33728c"/>
<stop offset="38.46154%" stop-color="#33738c"/>
<stop offset="38.846153%" stop-color="#32748c"/>
<stop offset="39.23077%" stop-color="#32758c"/>
<stop offset="39.615383%" stop-color="#31768c"/>
<stop offset="40%" stop-color="#31778c"/>
<stop offset="40.384613%" stop-color="#30788c"/>
<stop offset="40.76923%" stop-color="#30788c"/>
<stop offset="41.153847%" stop-color="#30798c"/>
<stop offset="41.538464%" stop-color="#2f7a8c"/>
<stop offset="41.923077%" stop-color="#2f7b8c"/>
<stop offset="42.307693%" stop-color="#2e7c8c"/>
<stop offset="42.692307%" stop-color="#2e7d8c"/>
<stop offset="43.076923%" stop-color="#2d7e8c"/>
<stop offset="43.461536%" stop-color="#2d7f8c"/>
<stop offset="43.846153%" stop-color="#2c808c"/>
<stop offset="44.230766%" stop-color="#2b818c"/>
<stop offset="44.615383%" stop-color="#2b828c"/>
<stop offset="45%" stop-color="#2a838c"/>
<stop offset="45.384617%" stop-color="#2a848c"/>
<stop offset="45.76923%" stop-color="#29858c"/>
<stop offset="46.153847%" stop-color="#28868c"/>
<stop offset="46.53846%" stop-color="#28878c"/>
<stop offset="46.923077%" stop-color="#27888c"/>
<stop offset="47.30769%" stop-color="#26888c"/>
<stop offset="47.692307%" stop-color="#25898c"/>
<stop offset="48.076923%" stop-color="#248a8c"/>
<stop offset="48.46154%" stop-color="#248b8c"/>
<stop offset="48.846153%" stop-color="#238c8c"/>
<stop offset="49.23077%" stop-color="#228d8c"/>
<stop offset="49.615383%" stop-color="#218e8c"/>
<stop offset="50%" stop-color="#208f8c"/>
<stop offset="50.384617%" stop-color="#21908c"/>
<stop offset="50.769234%" stop-color="#22918b"/>
<stop offset="51.153843%" stop-color="#23928b"/>
<stop offset="51.53846%" stop-color="#24938a"/>
<stop offset="51.923077%" stop-color="#25938a"/>
<stop offset="52.307693%" stop-color="#269489"/>
<stop offset="52.692307%" stop-color="#279589"/>
<stop offset="53.076923%" stop-color="#289689"/>
<stop offset="53.46154%" stop-color="#299788"/>
<stop offset="53.846157%" stop-color="#2a9888"/>
<stop offset="54.230766%" stop-color="#2b9987"/>
<stop offset="54.615383%" stop-color="#2c9a87"/>
<stop offset="55%" stop-color="#2d9b86"/>
<stop offset="55.384617%" stop-color="#2e9b86"/>
<stop offset="55.76923%" stop-color="#2e9c85"/>
<stop offset="56.153847%" stop-color="#2f9d85"/>
<stop offset="56.538464%" stop-color="#309e84"/>
<stop offset="56.92308%" stop-color="#319f84"/>
<stop offset="57.30769%" stop-color="#32a083"/>
<stop offset="57.692307%" stop-color="#33a183"/>
<stop offset="58.076923%" stop-color="#34a282"/>
<stop offset="58.46154%" stop-color="#35a282"/>
<stop offset="58.846153%" stop-color="#36a381"/>
<stop offset="59.23077%" stop-color="#37a481"/>
<stop offset="59.615387%" stop-color="#38a580"/>
<stop offset="60.000004%" stop-color="#39a680"/>
<stop offset="60.384613%" stop-color="#39a77f"/>
<stop offset="60.76923%" stop-color="#3aa87e"/>
<stop offset="61.153847%" stop-color="#3ba97e"/>
<stop offset="61.538464%" stop-color="#3caa7d"/>
<stop offset="61.923073%" stop-color="#3daa7d"/>
<stop offset="62.307693%" stop-color="#3eab7c"/>
<stop offset="62.692307%" stop-color="#3fac7b"/>
<stop offset="63.076927%" stop-color="#40ad7b"/>
<stop offset="63.461536%" stop-color="#41ae7a"/>
<stop offset="63.846153%" stop-color="#41af79"/>
<stop offset="64.23077%" stop-color="#42b079"/>
<stop offset="64.61539%" stop-color="#43b178"/>
<stop offset="65%" stop-color="#44b178"/>
<stop offset="65.38461%" stop-color="#45b277"/>
<stop offset="65.76923%" stop-color="#46b376"/>
<stop offset="66.15385%" stop-color="#47b475"/>
<stop offset="66.53846%" stop-color="#48b575"/>
<stop offset="66.92307%" stop-color="#49b674"/>
<stop offset="67.30769%" stop-color="#49b773"/>
<stop offset="67.69231%" stop-color="#4ab773"/>
<stop offset="68.07692%" stop-color="#4bb872"/>
<stop offset="68.46154%" stop-color="#4cb971"/>
<stop offset="68.84615%" stop-color="#4dba70"/>
<stop offset="69.230774%" stop-color="#4ebb6f"/>
<stop offset="69.61538%" stop-color="#4fbc6f"/>
<stop offset="70%" stop-color="#50bd6e"/>
<stop offset="70.38461%" stop-color="#50be6d"/>
<stop offset="70.76923%" stop-color="#51be6c"/>
<stop offset="71.15385%" stop-color="#52bf6b"/>
<stop offset="71.53846%" stop-color="#53c06b"/>
<stop offset="71.92308%" stop-color="#54c16a"/>
<stop offset="72.30769%" stop-color="#55c269"/>
<stop offset="72.69231%" stop-color="#56c368"/>
<stop offset="73.07692%" stop-color="#57c467"/>
<stop offset="73.46154%" stop-color="#57c566"/>
<stop offset="73.84615%" stop-color="#58c565"/>
<stop offset="74.23077%" stop-color="#59c664"/>
<stop offset="74.61539%" stop-color="#5ac763"/>
<stop offset="75%" stop-color="#5bc862"/>
<stop offset="75.38461%" stop-color="#5fc962"/>
<stop offset="75.76923%" stop-color="#62c961"/>
<stop offset="76.15385%" stop-color="#65ca61"/>
<stop offset="76.53846%" stop-color="#69ca60"/>
<stop offset="76.92308%" stop-color="#6ccb60"/>
<stop offset="77.30769%" stop-color="#6fcb5f"/>
<stop offset="77.69231%" stop-color="#72cc5f"/>
<stop offset="78.07692%" stop-color="#75cc5e"/>
<stop offset="78.46154%" stop-color="#78cd5e"/>
<stop offset="78.84615%" stop-color="#7bcd5d"/>
<stop offset="79.23077%" stop-color="#7ece5d"/>
<stop offset="79.61539%" stop-color="#80ce5c"/>
<stop offset="80%" stop-color="#83cf5c"/>
<stop offset="80.38462%" stop-color="#86cf5b"/>
<stop offset="80.769226%" stop-color="#89d05b"/>
<stop offset="81.15385%" stop-color="#8bd05a"/>
<stop offset="81.53846%" stop-color="#8ed159"/>
<stop offset="81.92308%" stop-color="#91d159"/>
<stop offset="82.30769%" stop-color="#93d258"/>
<stop offset="82.69231%" stop-color="#96d258"/>
<stop offset="83.07693%" stop-color="#98d357"/>
<stop offset="83.46154%" stop-color="#9bd356"/>
<stop offset="83.84615%" stop-color="#9dd456"/>
<stop offset="84.23077%" stop-color="#a0d455"/>
<stop offset="84.61539%" stop-color="#a2d554"/>
<stop offset="85%" stop-color="#a5d554"/>
<stop offset="85.38461%" stop-color="#a7d653"/>
<stop offset="85.76923%" stop-color="#aad652"/>
<stop offset="86.15385%" stop-color="#acd752"/>
<stop offset="86.53847%" stop-color="#afd751"/>
<stop offset="86.92307%" stop-color="#b1d850"/>
<stop offset="87.30769%" stop-color="#b3d84f"/>
<stop offset="87.69231%" stop-color="#b6d94f"/>
<stop offset="88.07693%" stop-color="#b8d94e"/>
<stop offset="88.46153%" stop-color="#bada4d"/>
<stop offset="88.84615%" stop-color="#bdda4c"/>
<stop offset="89.23077%" stop-color="#bfdb4b"/>
<stop offset="89.61539%" stop-color="#c1db4a"/>
<stop offset="90%" stop-color="#c4dc49"/>
<stop offset="90.38461%" stop-color="#c6dc48"/>
<stop offset="90.76923%" stop-color="#c8dd47"/>
<stop offset="91.15385%" stop-color="#cadd46"/>
<stop offset="91.53846%" stop-color="#cddd45"/>
<stop offset="91.92307%" stop-color="#cfde44"/>
<stop offset="92.30769%" stop-color="#d1de43"/>
<stop offset="92.69231%" stop-color="#d3df42"/>
<stop offset="93.07692%" stop-color="#d6df41"/>
<stop offset="93.46154%" stop-color="#d8e040"/>
<stop offset="93.84615%" stop-color="#dae03f"/>
<stop offset="94.230774%" stop-color="#dce13e"/>
<stop offset="94.61538%" stop-color="#dfe13c"/>
<stop offset="95%" stop-color="#e1e13b"/>
<stop offset="95.38461%" stop-color="#e3e23a"/>
<stop offset="95.76923%" stop-color="#e5e238"/>
<stop offset="96.15385%" stop-color="#e7e337"/>
<stop offset="96.53846%" stop-color="#eae335"/>
<stop offset="96.92308%" stop-color="#ece434"/>
<stop offset="97.30769%" stop-color="#eee432"/>
<stop offset="97.69231%" stop-color="#f0e530"/>
<stop offset="98.07692%" stop-color="#f2e52f"/>
<stop offset="98.46154%" stop-color="#f4e52d"/>
<stop offset="98.84615%" stop-color="#f7e62b"/>
<stop offset="99.23077%" stop-color="#f9e629"/>
<stop offset="99.61539%" stop-color="#fbe726"/>
<stop offset="100%" stop-color="#fde724"/>
</linearGradient>
</defs>
<rect fill="#ffffff" height="100%" width="100%"/>
<g clip-path="url(#plotive1)">
<path d="M0.5,0 Q0.49999997,0.20710677,0.35355338,0.35355338 Q0.20710677,0.49999997,0,0.5 Q-0.20710677,0.49999997,-0.35355338,0.35355338 Q-0.49999997,0.20710677,-0.5,0 Q-0.49999997,-0.20710677,-0.35355338,-0.35355338 Q-0.20710677,-0.49999997,0,-0.5 Q0.20710677,-0.49999997,0.35355338,-0.35355338 Q0.49999997,-0.20710677,0.5,0 z" fill="#440154" fill-opacity="0.7019608" stroke="#440154" stroke-width="0.23529412" transform="matrix(8.5 0 0 8.5 188.61476 112.57182)"/>
<path d="M0.5,0 Q0.49999997,0.20710677,0.35355338,0.35355338 Q0.20710677,0.49999997,0,0.5 Q-0.20710677,0.49999997,-0.35355338,0.35355338 Q-0.49999997,0.20710677,-0.5,0 Q-0.49999997,-0.20710677,-0.35355338,-0.35355338 Q-0.20710677,-0.49999997,0,-0.5 Q0.20710677,-0.49999997,0.35355338,-0.35355338 Q0.49999997,-0.20710677,0.5,0 z" fill="#461f63" fill-opacity="0.7019608" stroke="#461f63" stroke-width="0.23529412" transform="matrix(8.5 0 0 8.5 177.85916 65.19423)"/>
<path d="M0.5,0 Q0.49999997,0.20710677,0.35355338,0.35355338 Q0.20710677,0.49999997,0,0.5 Q-0.20710677,0.49999997,-0.35355338,0.35355338 Q-0.49999997,0.20710677,-0.5,0 Q-0.49999997,-0.20710677,-0.35355338,-0.35355338 Q-0.20710677,-0.49999997,0,-0.5 Q0.20710677,-0.49999997,0.35355338,-0.35355338 Q0.49999997,-0.20710677,0.5,0 z" fill="#453472" fill-opacity="0.7019608" stroke="#453472" stroke-width="0.23529412" transform="matrix(8.5 0 0 8.5 200.01393 182.75821)"/>
<path d="M0.5,0 Q0.49999997,0.20710677,0.35355338,0.35355338 Q0.20710677,0.49999997,0,0.5 Q-0.20710677,0.49999997,-0.35355338,0.35355338 Q-0.49999997,0.20710677,-0.5,0 Q-0.49999997,-0.20710677,-0.35355338,-0.35355338 Q-0.20710677,-0.49999997,0,-0.5 Q0.20710677,-0.49999997,0.35355338,-0.35355338 Q0.49999997,-0.20710677,0.5,0 z" fill="#404882" fill-opacity="0.7019608" stroke="#404882" stroke-width="0.23529412" transform="matrix(8.5 0 0 8.5 166.96925 137.4275)"/>
<path d="M0.5,0 Q0.49999997,0.20710677,0.35355338,0.35355338 Q0.20710677,0.49999997,0,0.5 Q-0.20710677,0.49999997,-0.35355338,0.35355338 Q-0.49999997,0.20710677,-0.5,0 Q-0.49999997,-0.20710677,-0.35355338,-0.35355338 Q-0.20710677,-0.49999997,0,-0.5 Q0.20710677,-0.49999997,0.35355338,-0.35355338 Q0.49999997,-0.20710677,0.5,0 z" fill="#3a5a8b" fill-opacity="0.7019608" stroke="#3a5a8b" stroke-width="0.23529412" transform="matrix(8.5 0 0 8.5 40 128.45457)"/>
<path d="M0.5,0 Q0.49999997,0.20710677,0.35355338,0.35355338 Q0.20710677,0.49999997,0,0.5 Q-0.20710677,0.49999997,-0.35355338,0.35355338 Q-0.49999997,0.20710677,-0.5,0 Q-0.49999997,-0.20710677,-0.35355338,-0.35355338 Q-0.20710677,-0.49999997,0,-0.5 Q0.20710677,-0.49999997,0.35355338,-0.35355338 Q0.49999997,-0.20710677,0.5,0 z" fill="#356c8c" fill-opacity="0.7019608" stroke="#356c8c" stroke-width="0.23529412" transform="matrix(8.5 0 0 8.5 145.17426 40)"/>
<path d="M0.5,0 Q0.49999997,0.20710677,0.35355338,0.35355338 Q0.20710677,0.49999997,0,0.5 Q-0.20710677,0.49999997,-0.35355338,0.35355338 Q-0.49999997,0.20710677,-0.5,0 Q-0.49999997,-0.20710677,-0.35355338,-0.35355338 Q-0.20710677,-0.49999997,0,-0.5 Q0.20710677,-0.49999997,0.35355338,-0.35355338 Q0.49999997,-0.20710677,0.5,0 z" fill="#2d7e8c" fill-opacity="0.7019608" stroke="#2d7e8c" stroke-width="0.23529412" transform="matrix(8.5 0 0 8.5 158.51772 221.95265)"/>
<path d="M0.5,0 Q0.49999997,0.20710677,0.35355338,0.35355338 Q0.20710677,0.49999997,0,0.5 Q-0.20710677,0.49999997,-0.35355338,0.35355338 Q-0.49999997,0.20710677,-0.5,0 Q-0.49999997,-0.20710677,-0.35355338,-0.35355338 Q-0.20710677,-0.49999997,0,-0.5 Q0.20710677,-0.49999997,0.35355338,-0.35355338 Q0.49999997,-0.20710677,0.5,0 z" fill="#208f8c" fill-opacity="0.7019608" stroke="#208f8c" stroke-width="0.23529412" transform="matrix(8.5 0 0 8.5 62.066555 179.70654)"/>
<path d="M0.5,0 Q0.49999997,0.20710677,0.35355338,0.35355338 Q0.20710677,0.49999997,0,0.5 Q-0.20710677,0.49999997,-0.35355338,0.35355338 Q-0.49999997,0.20710677,-0.5,0 Q-0.49999997,-0.20710677,-0.35355338,-0.35355338 Q-0.20710677,-0.49999997,0,-0.5 Q0.20710677,-0.49999997,0.35355338,-0.35355338 Q0.49999997,-0.20710677,0.5,0 z" fill="#329f84" fill-opacity="0.7019608" stroke="#329f84" stroke-width="0.23529412" transform="matrix(8.5 0 0 8.5 103.237564 119.84299)"/>
<path d="M0.5,0 Q0.49999997,0.20710677,0.35355338,0.35355338 Q0.20710677,0.49999997,0,0.5 Q-0.20710677,0.49999997,-0.35355338,0.35355338 Q-0.49999997,0.20710677,-0.5,0 Q-0.49999997,-0.20710677,-0.35355338,-0.35355338 Q-0.20710677,-0.49999997,0,-0.5 Q0.20710677,-0.49999997,0.35355338,-0.35355338 Q0.49999997,-0.20710677,0.5,0 z" fill="#42b079" fill-opacity="0.7019608" stroke="#42b079" stroke-width="0.23529412" transform="matrix(8.5 0 0 8.5 212.52838 107.928925)"/>
<path d="M0.5,0 Q0.49999997,0.20710677,0.35355338,0.35355338 Q0.20710677,0.49999997,0,0.5 Q-0.20710677,0.49999997,-0.35355338,0.35355338 Q-0.49999997,0.20710677,-0.5,0 Q-0.49999997,-0.20710677,-0.35355338,-0.35355338 Q-0.20710677,-0.49999997,0,-0.5 Q0.20710677,-0.49999997,0.35355338,-0.35355338 Q0.49999997,-0.20710677,0.5,0 z" fill="#53c06b" fill-opacity="0.7019608" stroke="#53c06b" stroke-width="0.23529412" transform="matrix(8.5 0 0 8.5 168.03935 123.19487)"/>
<path d="M0.5,0 Q0.49999997,0.20710677,0.35355338,0.35355338 Q0.20710677,0.49999997,0,0.5 Q-0.20710677,0.49999997,-0.35355338,0.35355338 Q-0.49999997,0.20710677,-0.5,0 Q-0.49999997,-0.20710677,-0.35355338,-0.35355338 Q-0.20710677,-0.49999997,0,-0.5 Q0.20710677,-0.49999997,0.35355338,-0.35355338 Q0.49999997,-0.20710677,0.5,0 z" fill="#79cd5e" fill-opacity="0.7019608" stroke="#79cd5e" stroke-width="0.23529412" transform="matrix(8.5 0 0 8.5 265.7857 73.18942)"/>
<path d="M0.5,0 Q0.49999997,0.20710677,0.35355338,0.35355338 Q0.20710677,0.49999997,0,0.5 Q-0.20710677,0.49999997,-0.35355338,0.35355338 Q-0.49999997,0.20710677,-0.5,0 Q-0.49999997,-0.20710677,-0.35355338,-0.35355338 Q-0.20710677,-0.49999997,0,-0.5 Q0.20710677,-0.49999997,0.35355338,-0.35355338 Q0.49999997,-0.20710677,0.5,0 z" fill="#a9d652" fill-opacity="0.7019608" stroke="#a9d652" stroke-width="0.23529412" transform="matrix(8.5 0 0 8.5 292.328 186.15048)"/>
<path d="M0.5,0 Q0.49999997,0.20710677,0.35355338,0.35355338 Q0.20710677,0.49999997,0,0.5 Q-0.20710677,0.49999997,-0.35355338,0.35355338 Q-0.49999997,0.20710677,-0.5,0 Q-0.49999997,-0.20710677,-0.35355338,-0.35355338 Q-0.20710677,-0.49999997,0,-0.5 Q0.20710677,-0.49999997,0.35355338,-0.35355338 Q0.49999997,-0.20710677,0.5,0 z" fill="#d4df42" fill-opacity="0.7019608" stroke="#d4df42" stroke-width="0.23529412" transform="matrix(8.5 0 0 8.5 45.502457 260)"/>
<path d="M0.5,0 Q0.49999997,0.20710677,0.35355338,0.35355338 Q0.20710677,0.49999997,0,0.5 Q-0.20710677,0.49999997,-0.35355338,0.35355338 Q-0.49999997,0.20710677,-0.5,0 Q-0.49999997,-0.20710677,-0.35355338,-0.35355338 Q-0.20710677,-0.49999997,0,-0.5 Q0.20710677,-0.49999997,0.35355338,-0.35355338 Q0.49999997,-0.20710677,0.5,0 z" fill="#fde724" fill-opacity="0.7019608" stroke="#fde724" stroke-width="0.23529412" transform="matrix(8.5 0 0 8.5 141.46219 56.149902)"/>
</g>
<rect fill="none" height="260" stroke="#000000" stroke-width="1" width="292.328" x="20" y="20"/>
<path d="M324.328,20 L344.328,20 L344.328,280 L324.328,280 z" fill="url(#plotive2)" stroke="none"/>
<path d="M324.328,20 L344.328,20 L344.328,280 L324.328,280 z" fill="none" stroke="#000000" stroke-width="1"/>
<path d="M344.328,280 L348.328,280" fill="none" stroke="#000000" stroke-width="1"/>
<path d="M0.48000002,0.46800017 L0.48000002,-0.46799994 L3.384,-0.46799994 L3.384,0.46800017 L0.48000002,0.46800017 z M8.124001,3.216 L7.092,3.216 L7.092,-2.7719998 Q7.092,-3.12,7.098,-3.3600001 Q7.104,-3.6,7.116,-3.81 Q7.1280003,-4.02,7.1400003,-4.248 Q6.948,-4.0559998,6.792,-3.9239998 Q6.636,-3.7919998,6.396,-3.5879998 L5.484,-2.8439999 L4.932,-3.552 L7.248,-5.3519998 L8.124001,-5.3519998 L8.124001,3.216 z M11.592,2.568 Q11.592,2.124,11.808,1.9440001 Q12.024,1.764,12.323999,1.764 Q12.636,1.764,12.858,1.9440001 Q13.08,2.124,13.08,2.568 Q13.08,3,12.858,3.1920002 Q12.636,3.384,12.323999,3.384 Q12.024,3.384,11.808,3.1920002 Q11.592,3,11.592,2.568 z M20.220001,-1.0799999 Q20.220001,-0.036000013,20.064,0.78 Q19.908,1.5960001,19.566,2.1660001 Q19.224,2.736,18.678001,3.036 Q18.132,3.336,17.364,3.336 Q16.404,3.336,15.774,2.808 Q15.144,2.2800002,14.838,1.2900001 Q14.532001,0.29999995,14.532001,-1.0799999 Q14.532001,-2.4720001,14.814,-3.4559999 Q15.096001,-4.44,15.72,-4.9620004 Q16.344,-5.4839997,17.364,-5.4839997 Q18.324001,-5.4839997,18.960001,-4.9620004 Q19.596,-4.44,19.908,-3.4559999 Q20.220001,-2.4720001,20.220001,-1.0799999 z M15.588,-1.0799999 Q15.588,0.095999956,15.762,0.87600017 Q15.936,1.656,16.326,2.046 Q16.716,2.436,17.364,2.436 Q18.012001,2.436,18.402,2.052 Q18.792,1.6680001,18.972,0.88199997 Q19.152,0.095999956,19.152,-1.0799999 Q19.152,-2.256,18.972,-3.0300002 Q18.792,-3.804,18.402,-4.194 Q18.012001,-4.584,17.364,-4.584 Q16.716,-4.584,16.326,-4.194 Q15.936,-3.804,15.762,-3.0300002 Q15.588,-2.256,15.588,-1.0799999 z M27.084,-1.0799999 Q27.084,-0.036000013,26.928001,0.78 Q26.772001,1.5960001,26.43,2.1660001 Q26.088001,2.736,25.542,3.036 Q24.996,3.336,24.228,3.336 Q23.268002,3.336,22.638,2.808 Q22.008001,2.2800002,21.702,1.2900001 Q21.396,0.29999995,21.396,-1.0799999 Q21.396,-2.4720001,21.678001,-3.4559999 Q21.960001,-4.44,22.584,-4.9620004 Q23.208,-5.4839997,24.228,-5.4839997 Q25.188,-5.4839997,25.824001,-4.9620004 Q26.460001,-4.44,26.772001,-3.4559999 Q27.084,-2.4720001,27.084,-1.0799999 z M22.452,-1.0799999 Q22.452,0.095999956,22.626001,0.87600017 Q22.800001,1.656,23.19,2.046 Q23.58,2.436,24.228,2.436 Q24.876,2.436,25.266,2.052 Q25.656,1.6680001,25.836,0.88199997 Q26.016,0.095999956,26.016,-1.0799999 Q26.016,-2.256,25.836,-3.0300002 Q25.656,-3.804,25.266,-4.194 Q24.876,-4.584,24.228,-4.584 Q23.58,-4.584,23.19,-4.194 Q22.800001,-3.804,22.626001,-3.0300002 Q22.452,-2.256,22.452,-1.0799999 z" fill="#000000" stroke="none" transform="matrix(1 0 0 1 352.328 280)"/>
<path d="M344.328,242.85715 L348.328,242.85715" fill="none" stroke="#000000" stroke-width="1"/>
<path d="M6.276,-1.0799999 Q6.276,-0.036000013,6.12,0.78 Q5.964,1.5960001,5.622,2.1660001 Q5.28,2.736,4.734,3.036 Q4.188,3.336,3.42,3.336 Q2.46,3.336,1.83,2.808 Q1.2,2.2800002,0.894,1.2900001 Q0.588,0.29999995,0.588,-1.0799999 Q0.588,-2.4720001,0.87,-3.4559999 Q1.152,-4.44,1.776,-4.9620004 Q2.4,-5.4839997,3.42,-5.4839997 Q4.38,-5.4839997,5.0160003,-4.9620004 Q5.652,-4.44,5.964,-3.4559999 Q6.276,-2.4720001,6.276,-1.0799999 z M1.644,-1.0799999 Q1.644,0.095999956,1.818,0.87600017 Q1.992,1.656,2.382,2.046 Q2.772,2.436,3.42,2.436 Q4.068,2.436,4.458,2.052 Q4.848,1.6680001,5.028,0.88199997 Q5.208,0.095999956,5.208,-1.0799999 Q5.208,-2.256,5.028,-3.0300002 Q4.848,-3.804,4.458,-4.194 Q4.068,-4.584,3.42,-4.584 Q2.772,-4.584,2.382,-4.194 Q1.992,-3.804,1.818,-3.0300002 Q1.644,-2.256,1.644,-1.0799999 z M7.7279997,2.568 Q7.7279997,2.124,7.944,1.9440001 Q8.16,1.764,8.46,1.764 Q8.771999,1.764,8.9939995,1.9440001 Q9.216,2.124,9.216,2.568 Q9.216,3,8.9939995,3.1920002 Q8.771999,3.384,8.46,3.384 Q8.16,3.384,7.944,3.1920002 Q7.7279997,3,7.7279997,2.568 z M16.355999,-1.0799999 Q16.355999,-0.036000013,16.2,0.78 Q16.044,1.5960001,15.702,2.1660001 Q15.360001,2.736,14.814,3.036 Q14.268,3.336,13.5,3.336 Q12.54,3.336,11.91,2.808 Q11.28,2.2800002,10.974,1.2900001 Q10.668,0.29999995,10.668,-1.0799999 Q10.668,-2.4720001,10.95,-3.4559999 Q11.232,-4.44,11.856,-4.9620004 Q12.48,-5.4839997,13.5,-5.4839997 Q14.46,-5.4839997,15.096001,-4.9620004 Q15.732,-4.44,16.044,-3.4559999 Q16.355999,-2.4720001,16.355999,-1.0799999 z M11.724,-1.0799999 Q11.724,0.095999956,11.898,0.87600017 Q12.072,1.656,12.462,2.046 Q12.852,2.436,13.5,2.436 Q14.148,2.436,14.538,2.052 Q14.9279995,1.6680001,15.108,0.88199997 Q15.288,0.095999956,15.288,-1.0799999 Q15.288,-2.256,15.108,-3.0300002 Q14.9279995,-3.804,14.538,-4.194 Q14.148,-4.584,13.5,-4.584 Q12.852,-4.584,12.462,-4.194 Q12.072,-3.804,11.898,-3.0300002 Q11.724,-2.256,11.724,-1.0799999 z M23.220001,-1.0799999 Q23.220001,-0.036000013,23.064,0.78 Q22.908,1.5960001,22.566,2.1660001 Q22.224,2.736,21.678001,3.036 Q21.132,3.336,20.364,3.336 Q19.404,3.336,18.774,2.808 Q18.144001,2.2800002,17.838,1.2900001 Q17.532,0.29999995,17.532,-1.0799999 Q17.532,-2.4720001,17.814001,-3.4559999 Q18.096,-4.44,18.720001,-4.9620004 Q19.344,-5.4839997,20.364,-5.4839997 Q21.324001,-5.4839997,21.960001,-4.9620004 Q22.596,-4.44,22.908,-3.4559999 Q23.220001,-2.4720001,23.220001,-1.0799999 z M18.588001,-1.0799999 Q18.588001,0.095999956,18.762001,0.87600017 Q18.936,1.656,19.326,2.046 Q19.716,2.436,20.364,2.436 Q21.012001,2.436,21.402,2.052 Q21.792,1.6680001,21.972,0.88199997 Q22.152,0.095999956,22.152,-1.0799999 Q22.152,-2.256,21.972,-3.0300002 Q21.792,-3.804,21.402,-4.194 Q21.012001,-4.584,20.364,-4.584 Q19.716,-4.584,19.326,-4.194 Q18.936,-3.804,18.762001,-3.0300002 Q18.588001,-2.256,18.588001,-1.0799999 z" fill="#000000" stroke="none" transform="matrix(1 0 0 1 352.328 242.85715)"/>
<path d="M344.328,205.71428 L348.328,205.71428" fill="none" stroke="#000000" stroke-width="1"/>
<path d="M4.26,3.216 L3.228,3.216 L3.228,-2.7719998 Q3.228,-3.12,3.234,-3.3600001 Q3.24,-3.6,3.252,-3.81 Q3.264,-4.02,3.276,-4.248 Q3.084,-4.0559998,2.928,-3.9239998 Q2.772,-3.7919998,2.532,-3.5879998 L1.62,-2.8439999 L1.068,-3.552 L3.384,-5.3519998 L4.26,-5.3519998 L4.26,3.216 z M7.7279997,2.568 Q7.7279997,2.124,7.944,1.9440001 Q8.16,1.764,8.46,1.764 Q8.771999,1.764,8.9939995,1.9440001 Q9.216,2.124,9.216,2.568 Q9.216,3,8.9939995,3.1920002 Q8.771999,3.384,8.46,3.384 Q8.16,3.384,7.944,3.1920002 Q7.7279997,3,7.7279997,2.568 z M16.355999,-1.0799999 Q16.355999,-0.036000013,16.2,0.78 Q16.044,1.5960001,15.702,2.1660001 Q15.360001,2.736,14.814,3.036 Q14.268,3.336,13.5,3.336 Q12.54,3.336,11.91,2.808 Q11.28,2.2800002,10.974,1.2900001 Q10.668,0.29999995,10.668,-1.0799999 Q10.668,-2.4720001,10.95,-3.4559999 Q11.232,-4.44,11.856,-4.9620004 Q12.48,-5.4839997,13.5,-5.4839997 Q14.46,-5.4839997,15.096001,-4.9620004 Q15.732,-4.44,16.044,-3.4559999 Q16.355999,-2.4720001,16.355999,-1.0799999 z M11.724,-1.0799999 Q11.724,0.095999956,11.898,0.87600017 Q12.072,1.656,12.462,2.046 Q12.852,2.436,13.5,2.436 Q14.148,2.436,14.538,2.052 Q14.9279995,1.6680001,15.108,0.88199997 Q15.288,0.095999956,15.288,-1.0799999 Q15.288,-2.256,15.108,-3.0300002 Q14.9279995,-3.804,14.538,-4.194 Q14.148,-4.584,13.5,-4.584 Q12.852,-4.584,12.462,-4.194 Q12.072,-3.804,11.898,-3.0300002 Q11.724,-2.256,11.724,-1.0799999 z M23.220001,-1.0799999 Q23.220001,-0.036000013,23.064,0.78 Q22.908,1.5960001,22.566,2.1660001 Q22.224,2.736,21.678001,3.036 Q21.132,3.336,20.364,3.336 Q19.404,3.336,18.774,2.808 Q18.144001,2.2800002,17.838,1.2900001 Q17.532,0.29999995,17.532,-1.0799999 Q17.532,-2.4720001,17.814001,-3.4559999 Q18.096,-4.44,18.720001,-4.9620004 Q19.344,-5.4839997,20.364,-5.4839997 Q21.324001,-5.4839997,21.960001,-4.9620004 Q22.596,-4.44,22.908,-3.4559999 Q23.220001,-2.4720001,23.220001,-1.0799999 z M18.588001,-1.0799999 Q18.588001,0.095999956,18.762001,0.87600017 Q18.936,1.656,19.326,2.046 Q19.716,2.436,20.364,2.436 Q21.012001,2.436,21.402,2.052 Q21.792,1.6680001,21.972,0.88199997 Q22.152,0.095999956,22.152,-1.0799999 Q22.152,-2.256,21.972,-3.0300002 Q21.792,-3.804,21.402,-4.194 Q21.012001,-4.584,20.364,-4.584 Q19.716,-4.584,19.326,-4.194 Q18.936,-3.804,18.762001,-3.0300002 Q18.588001,-2.256,18.588001,-1.0799999 z" fill="#000000" stroke="none" transform="matrix(1 0 0 1 352.328 205.71428)"/>
<path d="M344.328,168.57143 L348.328,168.57143" fill="none" stroke="#000000" stroke-width="1"/>
<path d="M6.2400002,3.216 L0.576,3.216 L0.576,2.3400002 L2.82,0.07200003 Q3.468,-0.576,3.912,-1.0799999 Q4.356,-1.5840001,4.584,-2.0700002 Q4.8120003,-2.5559998,4.8120003,-3.132 Q4.8120003,-3.8400002,4.392,-4.206 Q3.9720001,-4.572,3.3,-4.572 Q2.676,-4.572,2.202,-4.356 Q1.728,-4.14,1.2360001,-3.756 L0.672,-4.464 Q1.008,-4.752,1.41,-4.98 Q1.812,-5.2079997,2.286,-5.3399997 Q2.76,-5.4719996,3.3,-5.4719996 Q4.104,-5.4719996,4.68,-5.1959996 Q5.256,-4.9199996,5.574,-4.41 Q5.892,-3.9,5.892,-3.192 Q5.892,-2.52,5.616,-1.9320002 Q5.34,-1.3439999,4.848,-0.7739999 Q4.356,-0.204,3.696,0.444 L1.908,2.2080002 L1.908,2.256 L6.2400002,2.256 L6.2400002,3.216 z M7.7279997,2.568 Q7.7279997,2.124,7.944,1.9440001 Q8.16,1.764,8.46,1.764 Q8.771999,1.764,8.9939995,1.9440001 Q9.216,2.124,9.216,2.568 Q9.216,3,8.9939995,3.1920002 Q8.771999,3.384,8.46,3.384 Q8.16,3.384,7.944,3.1920002 Q7.7279997,3,7.7279997,2.568 z M16.355999,-1.0799999 Q16.355999,-0.036000013,16.2,0.78 Q16.044,1.5960001,15.702,2.1660001 Q15.360001,2.736,14.814,3.036 Q14.268,3.336,13.5,3.336 Q12.54,3.336,11.91,2.808 Q11.28,2.2800002,10.974,1.2900001 Q10.668,0.29999995,10.668,-1.0799999 Q10.668,-2.4720001,10.95,-3.4559999 Q11.232,-4.44,11.856,-4.9620004 Q12.48,-5.4839997,13.5,-5.4839997 Q14.46,-5.4839997,15.096001,-4.9620004 Q15.732,-4.44,16.044,-3.4559999 Q16.355999,-2.4720001,16.355999,-1.0799999 z M11.724,-1.0799999 Q11.724,0.095999956,11.898,0.87600017 Q12.072,1.656,12.462,2.046 Q12.852,2.436,13.5,2.436 Q14.148,2.436,14.538,2.052 Q14.9279995,1.6680001,15.108,0.88199997 Q15.288,0.095999956,15.288,-1.0799999 Q15.288,-2.256,15.108,-3.0300002 Q14.9279995,-3.804,14.538,-4.194 Q14.148,-4.584,13.5,-4.584 Q12.852,-4.584,12.462,-4.194 Q12.072,-3.804,11.898,-3.0300002 Q11.724,-2.256,11.724,-1.0799999 z M23.220001,-1.0799999 Q23.220001,-0.036000013,23.064,0.78 Q22.908,1.5960001,22.566,2.1660001 Q22.224,2.736,21.678001,3.036 Q21.132,3.336,20.364,3.336 Q19.404,3.336,18.774,2.808 Q18.144001,2.2800002,17.838,1.2900001 Q17.532,0.29999995,17.532,-1.0799999 Q17.532,-2.4720001,17.814001,-3.4559999 Q18.096,-4.44,18.720001,-4.9620004 Q19.344,-5.4839997,20.364,-5.4839997 Q21.324001,-5.4839997,21.960001,-4.9620004 Q22.596,-4.44,22.908,-3.4559999 Q23.220001,-2.4720001,23.220001,-1.0799999 z M18.588001,-1.0799999 Q18.588001,0.095999956,18.762001,0.87600017 Q18.936,1.656,19.326,2.046 Q19.716,2.436,20.364,2.436 Q21.012001,2.436,21.402,2.052 Q21.792,1.6680001,21.972,0.88199997 Q22.152,0.095999956,22.152,-1.0799999 Q22.152,-2.256,21.972,-3.0300002 Q21.792,-3.804,21.402,-4.194 Q21.012001,-4.584,20.364,-4.584 Q19.716,-4.584,19.326,-4.194 Q18.936,-3.804,18.762001,-3.0300002 Q18.588001,-2.256,18.588001,-1.0799999 z" fill="#000000" stroke="none" transform="matrix(1 0 0 1 352.328 168.57143)"/>
<path d="M344.328,131.42856 L348.328,131.42856" fill="none" stroke="#000000" stroke-width="1"/>
<path d="M5.916,-3.348 Q5.916,-2.7719998,5.7000003,-2.3519998 Q5.484,-1.9320002,5.0820003,-1.6679997 Q4.68,-1.4039998,4.14,-1.296 L4.14,-1.2480001 Q5.172,-1.1279998,5.676,-0.5999999 Q6.18,-0.07200003,6.18,0.78 Q6.18,1.524,5.8320003,2.106 Q5.484,2.6880002,4.758,3.012 Q4.032,3.336,2.892,3.336 Q2.22,3.336,1.644,3.234 Q1.068,3.132,0.54,2.868 L0.54,1.8840001 Q1.08,2.1480002,1.704,2.298 Q2.328,2.448,2.904,2.448 Q4.056,2.448,4.566,1.998 Q5.076,1.5480001,5.076,0.75600004 Q5.076,0.21600008,4.794,-0.11399984 Q4.512,-0.444,3.9720001,-0.5999999 Q3.432,-0.75600004,2.676,-0.75600004 L1.848,-0.75600004 L1.848,-1.6560001 L2.688,-1.6560001 Q3.3960001,-1.6560001,3.8700001,-1.8600001 Q4.344,-2.0640001,4.59,-2.4299998 Q4.836,-2.796,4.836,-3.276 Q4.836,-3.9,4.416,-4.242 Q3.996,-4.584,3.276,-4.584 Q2.82,-4.584,2.448,-4.494 Q2.076,-4.404,1.758,-4.242 Q1.44,-4.08,1.116,-3.8639998 L0.588,-4.584 Q1.044,-4.944,1.722,-5.2079997 Q2.4,-5.4719996,3.264,-5.4719996 Q4.608,-5.4719996,5.262,-4.872 Q5.916,-4.272,5.916,-3.348 z M7.7279997,2.568 Q7.7279997,2.124,7.944,1.9440001 Q8.16,1.764,8.46,1.764 Q8.771999,1.764,8.9939995,1.9440001 Q9.216,2.124,9.216,2.568 Q9.216,3,8.9939995,3.1920002 Q8.771999,3.384,8.46,3.384 Q8.16,3.384,7.944,3.1920002 Q7.7279997,3,7.7279997,2.568 z M16.355999,-1.0799999 Q16.355999,-0.036000013,16.2,0.78 Q16.044,1.5960001,15.702,2.1660001 Q15.360001,2.736,14.814,3.036 Q14.268,3.336,13.5,3.336 Q12.54,3.336,11.91,2.808 Q11.28,2.2800002,10.974,1.2900001 Q10.668,0.29999995,10.668,-1.0799999 Q10.668,-2.4720001,10.95,-3.4559999 Q11.232,-4.44,11.856,-4.9620004 Q12.48,-5.4839997,13.5,-5.4839997 Q14.46,-5.4839997,15.096001,-4.9620004 Q15.732,-4.44,16.044,-3.4559999 Q16.355999,-2.4720001,16.355999,-1.0799999 z M11.724,-1.0799999 Q11.724,0.095999956,11.898,0.87600017 Q12.072,1.656,12.462,2.046 Q12.852,2.436,13.5,2.436 Q14.148,2.436,14.538,2.052 Q14.9279995,1.6680001,15.108,0.88199997 Q15.288,0.095999956,15.288,-1.0799999 Q15.288,-2.256,15.108,-3.0300002 Q14.9279995,-3.804,14.538,-4.194 Q14.148,-4.584,13.5,-4.584 Q12.852,-4.584,12.462,-4.194 Q12.072,-3.804,11.898,-3.0300002 Q11.724,-2.256,11.724,-1.0799999 z M23.220001,-1.0799999 Q23.220001,-0.036000013,23.064,0.78 Q22.908,1.5960001,22.566,2.1660001 Q22.224,2.736,21.678001,3.036 Q21.132,3.336,20.364,3.336 Q19.404,3.336,18.774,2.808 Q18.144001,2.2800002,17.838,1.2900001 Q17.532,0.29999995,17.532,-1.0799999 Q17.532,-2.4720001,17.814001,-3.4559999 Q18.096,-4.44,18.720001,-4.9620004 Q19.344,-5.4839997,20.364,-5.4839997 Q21.324001,-5.4839997,21.960001,-4.9620004 Q22.596,-4.44,22.908,-3.4559999 Q23.220001,-2.4720001,23.220001,-1.0799999 z M18.588001,-1.0799999 Q18.588001,0.095999956,18.762001,0.87600017 Q18.936,1.656,19.326,2.046 Q19.716,2.436,20.364,2.436 Q21.012001,2.436,21.402,2.052 Q21.792,1.6680001,21.972,0.88199997 Q22.152,0.095999956,22.152,-1.0799999 Q22.152,-2.256,21.972,-3.0300002 Q21.792,-3.804,21.402,-4.194 Q21.012001,-4.584,20.364,-4.584 Q19.716,-4.584,19.326,-4.194 Q18.936,-3.804,18.762001,-3.0300002 Q18.588001,-2.256,18.588001,-1.0799999 z" fill="#000000" stroke="none" transform="matrix(1 0 0 1 352.328 131.42856)"/>
<path d="M344.328,94.285706 L348.328,94.285706" fill="none" stroke="#000000" stroke-width="1"/>
<path d="M6.624,1.2720001 L5.376,1.2720001 L5.376,3.216 L4.356,3.216 L4.356,1.2720001 L0.252,1.2720001 L0.252,0.37199998 L4.284,-5.4 L5.376,-5.4 L5.376,0.32400012 L6.624,0.32400012 L6.624,1.2720001 z M4.356,-2.376 Q4.356,-2.6880002,4.362,-2.946 Q4.368,-3.204,4.38,-3.4320002 Q4.392,-3.6599998,4.3980002,-3.87 Q4.404,-4.08,4.416,-4.272 L4.368,-4.272 Q4.272,-4.044,4.1280003,-3.7800002 Q3.984,-3.5159998,3.852,-3.336 L1.284,0.32400012 L4.356,0.32400012 L4.356,-2.376 z M7.7279997,2.568 Q7.7279997,2.124,7.944,1.9440001 Q8.16,1.764,8.46,1.764 Q8.771999,1.764,8.9939995,1.9440001 Q9.216,2.124,9.216,2.568 Q9.216,3,8.9939995,3.1920002 Q8.771999,3.384,8.46,3.384 Q8.16,3.384,7.944,3.1920002 Q7.7279997,3,7.7279997,2.568 z M16.355999,-1.0799999 Q16.355999,-0.036000013,16.2,0.78 Q16.044,1.5960001,15.702,2.1660001 Q15.360001,2.736,14.814,3.036 Q14.268,3.336,13.5,3.336 Q12.54,3.336,11.91,2.808 Q11.28,2.2800002,10.974,1.2900001 Q10.668,0.29999995,10.668,-1.0799999 Q10.668,-2.4720001,10.95,-3.4559999 Q11.232,-4.44,11.856,-4.9620004 Q12.48,-5.4839997,13.5,-5.4839997 Q14.46,-5.4839997,15.096001,-4.9620004 Q15.732,-4.44,16.044,-3.4559999 Q16.355999,-2.4720001,16.355999,-1.0799999 z M11.724,-1.0799999 Q11.724,0.095999956,11.898,0.87600017 Q12.072,1.656,12.462,2.046 Q12.852,2.436,13.5,2.436 Q14.148,2.436,14.538,2.052 Q14.9279995,1.6680001,15.108,0.88199997 Q15.288,0.095999956,15.288,-1.0799999 Q15.288,-2.256,15.108,-3.0300002 Q14.9279995,-3.804,14.538,-4.194 Q14.148,-4.584,13.5,-4.584 Q12.852,-4.584,12.462,-4.194 Q12.072,-3.804,11.898,-3.0300002 Q11.724,-2.256,11.724,-1.0799999 z M23.220001,-1.0799999 Q23.220001,-0.036000013,23.064,0.78 Q22.908,1.5960001,22.566,2.1660001 Q22.224,2.736,21.678001,3.036 Q21.132,3.336,20.364,3.336 Q19.404,3.336,18.774,2.808 Q18.144001,2.2800002,17.838,1.2900001 Q17.532,0.29999995,17.532,-1.0799999 Q17.532,-2.4720001,17.814001,-3.4559999 Q18.096,-4.44,18.720001,-4.9620004 Q19.344,-5.4839997,20.364,-5.4839997 Q21.324001,-5.4839997,21.960001,-4.9620004 Q22.596,-4.44,22.908,-3.4559999 Q23.220001,-2.4720001,23.220001,-1.0799999 z M18.588001,-1.0799999 Q18.588001,0.095999956,18.762001,0.87600017 Q18.936,1.656,19.326,2.046 Q19.716,2.436,20.364,2.436 Q21.012001,2.436,21.402,2.052 Q21.792,1.6680001,21.972,0.88199997 Q22.152,0.095999956,22.152,-1.0799999 Q22.152,-2.256,21.972,-3.0300002 Q21.792,-3.804,21.402,-4.194 Q21.012001,-4.584,20.364,-4.584 Q19.716,-4.584,19.326,-4.194 Q18.936,-3.804,18.762001,-3.0300002 Q18.588001,-2.256,18.588001,-1.0799999 z" fill="#000000" stroke="none" transform="matrix(1 0 0 1 352.328 94.285706)"/>
<path d="M344.328,57.142853 L348.328,57.142853" fill="none" stroke="#000000" stroke-width="1"/>
<path d="M3.3,-2.04 Q4.176,-2.04,4.824,-1.7399998 Q5.472,-1.44,5.826,-0.88199997 Q6.18,-0.32399988,6.18,0.48000002 Q6.18,1.368,5.796,2.0100002 Q5.412,2.652,4.698,2.994 Q3.984,3.336,2.976,3.336 Q2.316,3.336,1.734,3.216 Q1.152,3.0960002,0.756,2.868 L0.756,1.8720001 Q1.188,2.1360002,1.806,2.286 Q2.424,2.436,2.988,2.436 Q3.624,2.436,4.098,2.2380002 Q4.572,2.04,4.836,1.626 Q5.1,1.2120001,5.1,0.58800006 Q5.1,-0.25199986,4.584,-0.7019999 Q4.068,-1.152,2.9520001,-1.152 Q2.616,-1.152,2.184,-1.092 Q1.752,-1.0320001,1.488,-0.9720001 L0.96000004,-1.3080001 L1.284,-5.3519998 L5.58,-5.3519998 L5.58,-4.392 L2.184,-4.392 L1.98,-1.908 Q2.184,-1.9439998,2.532,-1.9920001 Q2.88,-2.04,3.3,-2.04 z M7.7279997,2.568 Q7.7279997,2.124,7.944,1.9440001 Q8.16,1.764,8.46,1.764 Q8.771999,1.764,8.9939995,1.9440001 Q9.216,2.124,9.216,2.568 Q9.216,3,8.9939995,3.1920002 Q8.771999,3.384,8.46,3.384 Q8.16,3.384,7.944,3.1920002 Q7.7279997,3,7.7279997,2.568 z M16.355999,-1.0799999 Q16.355999,-0.036000013,16.2,0.78 Q16.044,1.5960001,15.702,2.1660001 Q15.360001,2.736,14.814,3.036 Q14.268,3.336,13.5,3.336 Q12.54,3.336,11.91,2.808 Q11.28,2.2800002,10.974,1.2900001 Q10.668,0.29999995,10.668,-1.0799999 Q10.668,-2.4720001,10.95,-3.4559999 Q11.232,-4.44,11.856,-4.9620004 Q12.48,-5.4839997,13.5,-5.4839997 Q14.46,-5.4839997,15.096001,-4.9620004 Q15.732,-4.44,16.044,-3.4559999 Q16.355999,-2.4720001,16.355999,-1.0799999 z M11.724,-1.0799999 Q11.724,0.095999956,11.898,0.87600017 Q12.072,1.656,12.462,2.046 Q12.852,2.436,13.5,2.436 Q14.148,2.436,14.538,2.052 Q14.9279995,1.6680001,15.108,0.88199997 Q15.288,0.095999956,15.288,-1.0799999 Q15.288,-2.256,15.108,-3.0300002 Q14.9279995,-3.804,14.538,-4.194 Q14.148,-4.584,13.5,-4.584 Q12.852,-4.584,12.462,-4.194 Q12.072,-3.804,11.898,-3.0300002 Q11.724,-2.256,11.724,-1.0799999 z M23.220001,-1.0799999 Q23.220001,-0.036000013,23.064,0.78 Q22.908,1.5960001,22.566,2.1660001 Q22.224,2.736,21.678001,3.036 Q21.132,3.336,20.364,3.336 Q19.404,3.336,18.774,2.808 Q18.144001,2.2800002,17.838,1.2900001 Q17.532,0.29999995,17.532,-1.0799999 Q17.532,-2.4720001,17.814001,-3.4559999 Q18.096,-4.44,18.720001,-4.9620004 Q19.344,-5.4839997,20.364,-5.4839997 Q21.324001,-5.4839997,21.960001,-4.9620004 Q22.596,-4.44,22.908,-3.4559999 Q23.220001,-2.4720001,23.220001,-1.0799999 z M18.588001,-1.0799999 Q18.588001,0.095999956,18.762001,0.87600017 Q18.936,1.656,19.326,2.046 Q19.716,2.436,20.364,2.436 Q21.012001,2.436,21.402,2.052 Q21.792,1.6680001,21.972,0.88199997 Q22.152,0.095999956,22.152,-1.0799999 Q22.152,-2.256,21.972,-3.0300002 Q21.792,-3.804,21.402,-4.194 Q21.012001,-4.584,20.364,-4.584 Q19.716,-4.584,19.326,-4.194 Q18.936,-3.804,18.762001,-3.0300002 Q18.588001,-2.256,18.588001,-1.0799999 z" fill="#000000" stroke="none" transform="matrix(1 0 0 1 352.328 57.142853)"/>
<path d="M344.328,20 L348.328,20" fill="none" stroke="#000000" stroke-width="1"/>
<path d="M0.66,-0.444 Q0.66,-1.1879997,0.762,-1.908 Q0.864,-2.6279998,1.116,-3.27 Q1.368,-3.9120002,1.812,-4.41 Q2.256,-4.9079995,2.934,-5.19 Q3.612,-5.4719996,4.584,-5.4719996 Q4.836,-5.4719996,5.142,-5.4480004 Q5.448,-5.4240003,5.64,-5.364 L5.64,-4.464 Q5.4240003,-4.536,5.1540003,-4.572 Q4.884,-4.608,4.608,-4.608 Q3.78,-4.608,3.228,-4.332 Q2.676,-4.0559998,2.358,-3.5760002 Q2.04,-3.0960002,1.896,-2.4720001 Q1.752,-1.848,1.716,-1.1399999 L1.788,-1.1399999 Q1.968,-1.428,2.244,-1.6560001 Q2.52,-1.8839998,2.91,-2.0159998 Q3.3,-2.1479998,3.816,-2.1479998 Q4.56,-2.1479998,5.118,-1.842 Q5.676,-1.5359998,5.988,-0.954 Q6.3,-0.37199998,6.3,0.4560001 Q6.3,1.3440001,5.964,1.9920001 Q5.6280003,2.64,5.022,2.9880002 Q4.416,3.336,3.576,3.336 Q2.964,3.336,2.436,3.108 Q1.908,2.88,1.506,2.4120002 Q1.104,1.9440001,0.882,1.23 Q0.66,0.51600003,0.66,-0.444 z M3.5640001,2.448 Q4.32,2.448,4.788,1.962 Q5.256,1.4760001,5.256,0.4560001 Q5.256,-0.3599999,4.842,-0.84000015 Q4.428,-1.3200002,3.6000001,-1.3200002 Q3.036,-1.3200002,2.616,-1.086 Q2.196,-0.85199976,1.962,-0.49199986 Q1.728,-0.13199997,1.728,0.2520001 Q1.728,0.648,1.842,1.0320001 Q1.956,1.416,2.19,1.74 Q2.424,2.0640001,2.766,2.256 Q3.108,2.448,3.5640001,2.448 z M7.7279997,2.568 Q7.7279997,2.124,7.944,1.9440001 Q8.16,1.764,8.46,1.764 Q8.771999,1.764,8.9939995,1.9440001 Q9.216,2.124,9.216,2.568 Q9.216,3,8.9939995,3.1920002 Q8.771999,3.384,8.46,3.384 Q8.16,3.384,7.944,3.1920002 Q7.7279997,3,7.7279997,2.568 z M16.355999,-1.0799999 Q16.355999,-0.036000013,16.2,0.78 Q16.044,1.5960001,15.702,2.1660001 Q15.360001,2.736,14.814,3.036 Q14.268,3.336,13.5,3.336 Q12.54,3.336,11.91,2.808 Q11.28,2.2800002,10.974,1.2900001 Q10.668,0.29999995,10.668,-1.0799999 Q10.668,-2.4720001,10.95,-3.4559999 Q11.232,-4.44,11.856,-4.9620004 Q12.48,-5.4839997,13.5,-5.4839997 Q14.46,-5.4839997,15.096001,-4.9620004 Q15.732,-4.44,16.044,-3.4559999 Q16.355999,-2.4720001,16.355999,-1.0799999 z M11.724,-1.0799999 Q11.724,0.095999956,11.898,0.87600017 Q12.072,1.656,12.462,2.046 Q12.852,2.436,13.5,2.436 Q14.148,2.436,14.538,2.052 Q14.9279995,1.6680001,15.108,0.88199997 Q15.288,0.095999956,15.288,-1.0799999 Q15.288,-2.256,15.108,-3.0300002 Q14.9279995,-3.804,14.538,-4.194 Q14.148,-4.584,13.5,-4.584 Q12.852,-4.584,12.462,-4.194 Q12.072,-3.804,11.898,-3.0300002 Q11.724,-2.256,11.724,-1.0799999 z M23.220001,-1.0799999 Q23.220001,-0.036000013,23.064,0.78 Q22.908,1.5960001,22.566,2.1660001 Q22.224,2.736,21.678001,3.036 Q21.132,3.336,20.364,3.336 Q19.404,3.336,18.774,2.808 Q18.144001,2.2800002,17.838,1.2900001 Q17.532,0.29999995,17.532,-1.0799999 Q17.532,-2.4720001,17.814001,-3.4559999 Q18.096,-4.44,18.720001,-4.9620004 Q19.344,-5.4839997,20.364,-5.4839997 Q21.324001,-5.4839997,21.960001,-4.9620004 Q22.596,-4.44,22.908,-3.4559999 Q23.220001,-2.4720001,23.220001,-1.0799999 z M18.588001,-1.0799999 Q18.588001,0.095999956,18.762001,0.87600017 Q18.936,1.656,19.326,2.046 Q19.716,2.436,20.364,2.436 Q21.012001,2.436,21.402,2.052 Q21.792,1.6680001,21.972,0.88199997 Q22.152,0.095999956,22.152,-1.0799999 Q22.152,-2.256,21.972,-3.0300002 Q21.792,-3.804,21.402,-4.194 Q21.012001,-4.584,20.364,-4.584 Q19.716,-4.584,19.326,-4.194 Q18.936,-3.804,18.762001,-3.0300002 Q18.588001,-2.256,18.588001,-1.0799999 z" fill="#000000" stroke="none" transform="matrix(1 0 0 1 352.328 20)"/>
</svg>